<svg viewBox="0 0 400 400" xmlns="http://www.w3.org/2000/svg"><path d="m289.65 32.53h-18a8.32 8.32 0 0 1 1.35 4.47 8.5 8.5 0 0 1 -8.48 8.47h-60.52a8.5 8.5 0 0 1 -8.53-8.47 8.41 8.41 0 0 1 1.28-4.44h-18a22.07 22.07 0 0 0 -22.05 22v284.44a22.07 22.07 0 0 0 22.08 22h110.87a22.07 22.07 0 0 0 22.05-22v-284.42a22.07 22.07 0 0 0 -22.05-22.05z" fill="#c0d4f9"/><path d="m212.24 257.84-55.4 20.1v18.99h154.76v-19.55l-59.34-19.54z" fill="#ffea66"/><path d="m215.12 239.78-2.88 24.34s19.34 14.45 41.07 0l-4.07-24.34z" fill="#e6bda0"/><path d="m280.05 168.09c.15-2.38.29-4.81.38-7.31a46.2 46.2 0 0 0 .28-5c0-1 0-1.9-.09-2.84v-.08a46.54 46.54 0 1 0 -92.55 9.29c.13 1.69.3 3.68.49 5.9-2 .71-11.09 4.57-4.73 13.42 0 0 2 2 1.6 4.33s-1.81 6.73 1.31 9c1.73 1.27 3.47.15 4.69-1.11.81 5.91 1.77 12 2.9 17.9 0 0 22.83 33.19 39.84 33.88 0 0 14.19 2.77 39.62-34.91 0 0 1.65-6.39 3.33-16.78 1.21 1.22 2.91 2.26 4.59 1 3.12-2.31 1.73-6.73 1.31-9s1.6-4.33 1.6-4.33c6.18-8.61-2.29-12.45-4.57-13.36z" fill="#e6bda0"/><ellipse cx="188.29" cy="182.45" fill="#e6bda0" rx="7.5" ry="13.66" transform="matrix(.98713627 -.15988119 .15988119 .98713627 -26.74 32.43)"/><ellipse cx="279.1" cy="182.45" fill="#e6bda0" rx="13.66" ry="7.5" transform="matrix(.15988119 -.98713627 .98713627 .15988119 54.39 428.81)"/><path d="m277.64 158.63s-6.48 53.88-23.25 50.84v-.81a7.2 7.2 0 0 0 -7.2-7.2h-26.05a7.2 7.2 0 0 0 -7.21 7.2v1.34a.43.43 0 0 0 0 0c-8.4-.42-21.66-8.06-23-51.38l-3.22.58 4.24 53.39s20.87 34.73 42.24 35.74c0 0 22.68-1.73 42.45-38.48l4.13-51.23zm-28.4 60.66a7.51 7.51 0 0 1 -7.49 7.49h-.22a2.86 2.86 0 0 1 -2.82-2.4l-.9-5.47a2.87 2.87 0 0 0 -2.82-2.4h-2.12a2.85 2.85 0 0 0 -2.87 2.49l-.63 5.23a2.87 2.87 0 0 1 -2.84 2.52 7.51 7.51 0 0 1 -7.49-7.49v-5.55a7.51 7.51 0 0 1 7.49-7.49h13.77a8.93 8.93 0 0 1 8.9 8.9z" fill="#242829"/><path d="m187.68 159.89a154.78 154.78 0 0 1 .06-25.86c1.17-15.71 10.3-17.74 10.3-17.74s-2-1.21-4.79 1.32 0-2.78 6.06-4 9.12-15.62 25.85-12.83c0 0-7.6.25-10.14 3.29 0 0 6.34-2.53 6.59-1.27 0 0-5.83 3.05-4.31 4.06 0 0 11.15-7.86 20-7.86 0 0 8.36-4.56 14.95-3a13.43 13.43 0 0 1 7.35 11.15s3-.76 4.06-2.79 3 4.06 2.28 5.33 2.66 4.81 4.37 2.53c0 0 1.2 5.07-2.09 5.07 0 0 9.47-1.27 12.34 6.84s-.16 38.51-.16 38.51l-2.84-.43s.54-22.61-2.25-23.63-9.53-10.58-19.07-4.58-6-1.52-7-3-3.42 6.33-7.16 6.33-7-2.58-10.33-8.13-2.28 5.85-1 5.85 1.52 6.85-10.14-1.77-28.14 5.58-28.14 5.58-2.16 17.42-1.53 20.67z" fill="#242829"/><path d="m290.62 150a2.26 2.26 0 0 1 -2.27-2.27v-29.93a2.27 2.27 0 0 0 -2.27-2.27h-30.63a2.27 2.27 0 0 1 -2.27-2.27 2.27 2.27 0 0 1 2.27-2.27h35.17a2.27 2.27 0 0 1 2.27 2.27v34.49a2.27 2.27 0 0 1 -2.27 2.25z" fill="#fff"/><path d="m177.82 150a2.27 2.27 0 0 1 -2.28-2.27v-34.47a2.28 2.28 0 0 1 2.28-2.27h35.18a2.27 2.27 0 0 1 2.27 2.27 2.27 2.27 0 0 1 -2.27 2.27h-30.64a2.27 2.27 0 0 0 -2.27 2.27v30a2.27 2.27 0 0 1 -2.27 2.2z" fill="#fff"/><path d="m290.62 237.08h-35.17a2.27 2.27 0 0 1 -2.27-2.27 2.27 2.27 0 0 1 2.27-2.27h30.63a2.27 2.27 0 0 0 2.27-2.27v-30a2.27 2.27 0 0 1 2.27-2.27 2.27 2.27 0 0 1 2.27 2.27v34.49a2.27 2.27 0 0 1 -2.27 2.32z" fill="#fff"/><path d="m213.13 237.08h-35.46a2.13 2.13 0 0 1 -2.13-2.12v-34.78a2.13 2.13 0 0 1 2.13-2.13h.33a2.13 2.13 0 0 1 2.13 2.13v30.24a2.12 2.12 0 0 0 2.12 2.12h30.92a2.12 2.12 0 0 1 2.12 2.13v.33a2.12 2.12 0 0 1 -2.16 2.08z" fill="#fff"/><g fill="none"><path d="m210.73 127.64h44.91l27.18 34.23-8.04 37.52-39.56 21.83-40.82-23.55-8.79-36.11z" stroke="#fff" stroke-miterlimit="10"/><path d="m282.82 161.87-33.88 9.11 6.7-43.34-21.42 17.27-23.49-17.27 8.05 43.34-33.17-9.42" stroke="#fff" stroke-miterlimit="10"/><path d="m234.22 144.91-15.44 26.07 14.41 29.2 15.75-29.2z" stroke="#fff" stroke-miterlimit="10"/><path d="m235.22 221.22-2.03-21.04-16.42 10.4 2.01-39.6-24.38 26.69" stroke="#fff" stroke-miterlimit="10"/><path d="m233.19 200.18 17.65 12.42-1.9-41.62 24.54 28.41" stroke="#fff" stroke-miterlimit="10"/><path d="m210.73 129.59a2 2 0 1 1 2-2 2 2 0 0 1 -2 2z" stroke="#fff" stroke-miterlimit="10"/><path d="m256.11 129.59a2 2 0 1 1 1.95-2 1.95 1.95 0 0 1 -1.95 2z" stroke="#fff" stroke-miterlimit="10"/><path d="m233.86 146.86a1.95 1.95 0 1 1 1.95-2 1.94 1.94 0 0 1 -1.95 2z" stroke="#fff" stroke-miterlimit="10"/><path d="m218.43 172.93a1.95 1.95 0 1 1 1.95-2 2 2 0 0 1 -1.95 2z" stroke="#fff" stroke-miterlimit="10"/><path d="m248.94 172.93a1.95 1.95 0 1 1 1.95-2 2 2 0 0 1 -1.95 2z" stroke="#fff" stroke-miterlimit="10"/><path d="m233.18 202.13a1.95 1.95 0 1 1 1.95-1.95 1.94 1.94 0 0 1 -1.95 1.95z" stroke="#fff" stroke-miterlimit="10"/><path d="m216.77 212.53a2 2 0 1 1 1.95-1.95 2 2 0 0 1 -1.95 1.95z" stroke="#fff" stroke-miterlimit="10"/><path d="m250.84 214.55a1.95 1.95 0 1 1 1.95-2 2 2 0 0 1 -1.95 2z" stroke="#fff" stroke-miterlimit="10"/><path d="m273.69 201.12a1.95 1.95 0 1 1 1.95-1.94 1.94 1.94 0 0 1 -1.95 1.94z" stroke="#fff" stroke-miterlimit="10"/><path d="m194.4 199.18a1.95 1.95 0 1 1 1.95-2 2 2 0 0 1 -1.95 2z" stroke="#fff" stroke-miterlimit="10"/><path d="m187.55 161.43a1.95 1.95 0 1 1 -3.89.25 2 2 0 0 1 1.83-2.07 1.94 1.94 0 0 1 2.06 1.82z" stroke="#fff" stroke-miterlimit="10"/><path d="m284.77 161.43a1.95 1.95 0 1 1 -2.07-1.82 1.95 1.95 0 0 1 2.07 1.82z" stroke="#fff" stroke-miterlimit="10"/></g><path d="m289.65 26.07h-110.87a28.59 28.59 0 0 0 -28.51 28.51v284.42a28.59 28.59 0 0 0 28.51 28.51h110.87a28.59 28.59 0 0 0 28.51-28.51v-284.42a28.59 28.59 0 0 0 -28.51-28.51zm22.05 312.93a22.07 22.07 0 0 1 -22.05 22h-110.87a22.07 22.07 0 0 1 -22.05-22v-284.42a22.07 22.07 0 0 1 22.05-22h18a8.41 8.41 0 0 0 -1.31 4.42 8.5 8.5 0 0 0 8.53 8.44h60.53a8.5 8.5 0 0 0 8.47-8.44 8.32 8.32 0 0 0 -1.28-4.44h18a22.07 22.07 0 0 1 22.05 22z" fill="#365dbc"/><path d="m130.2 118.93a1.48 1.48 0 0 0 .4-.82s0-.09 0-.13 0-.08 0-.13a.69.69 0 0 0 0-.13 1.41 1.41 0 0 0 0-.18s0-.06 0-.09l-.06-.29s0 0 0-.07l-.06-.23v-.08a1.55 1.55 0 0 0 -.08-.23.14.14 0 0 0 0-.06l-.12-.26c0-.07-.09-.13-.13-.19l-.05-.05a1.59 1.59 0 0 0 -.13-.13 1 1 0 0 0 -.21-.11.71.71 0 0 0 -.21 0h-.08-.2-.08a1.84 1.84 0 0 0 -.31.16 6.93 6.93 0 0 0 -1.65 1.34 5.75 5.75 0 0 0 -1.13 3.08c0 .21-.06.44-.09.68-.19 1.71.11 2.85-.09 4a4.25 4.25 0 0 1 -.91 1.91s-.09.1-.13.16a8.54 8.54 0 0 1 -.85.88c-2.15 2-7.08 2.91-10.57 2.08a5.87 5.87 0 0 1 -2.86-1.43 3.61 3.61 0 0 1 0 .59 29.15 29.15 0 0 1 -1.71 5c5.06 0 14.85.91 17.41 2.3.46.25 1.18.61 2.06 1 0 0 .41-3.69 1.17-4.37a1 1 0 0 1 .26-.16c-1.28-1.75-1.28-5-1.28-5z" fill="#e6bda0"/><path d="m130 101c.08.08.23.22.4.41a9 9 0 0 1 1.85 3 5.38 5.38 0 0 1 .34 1.85 13.76 13.76 0 0 1 -.81 4.89 28.49 28.49 0 0 1 .44 4.79 5.75 5.75 0 0 0 0 .83 2.92 2.92 0 0 1 -.12.83c-.37 2-.73 4-1.1 6.06l-.78 4.28a2.88 2.88 0 0 0 3 2.16c1.08-3.51 2.69-12.46 2.46-16.35-.26-4.41-.3-8.95-1.84-11s-1.72-2.31-1.72-2.31l-2.14.56z" fill="#e6bda0"/><path d="m161.23 105.5v15.59a.86.86 0 0 1 -.87.84h-6.45a.87.87 0 0 1 -.88-.84v-15.59a.87.87 0 0 1 .88-.84h6.45a.86.86 0 0 1 .87.84z" fill="#d4d6fa"/><path d="m161.75 115v7.54a1 1 0 0 1 -1 1h-7.25a1 1 0 0 1 -1-1v-18.31a1 1 0 0 1 1-1h7.25a1 1 0 0 1 1 1zm-.52 6.08v-15.58a.86.86 0 0 0 -.87-.84h-6.45a.87.87 0 0 0 -.88.84v15.59a.87.87 0 0 0 .88.84h6.45a.86.86 0 0 0 .87-.84z" fill="#242829"/><path d="m110.8 364.32c-.3 1.22-.77 3.2-1.18 5.07-6.94 1.66-23.05 1.71-27 1.69a.89.89 0 0 1 -.78-1.07c.41-3.12 1.83-9.86 1.83-9.86h11.26v.07a59.83 59.83 0 0 1 7.19 2.74c2.39 1.2 6.94.92 8.68 1.36z" fill="#d25581"/><path d="m144 367.41c1.15.79 1 3.88 1 3.88-4.74 2.59-29.62 2.65-35.06 2.64a.92.92 0 0 1 -.92-1.08c.14-.93.39-2.17.67-3.46.41-1.87.88-3.85 1.18-5.07.18-.77.3-1.25.3-1.25h14.83s3.74 1.37 7 2.74 9.81.8 11 1.6z" fill="#d25581"/><path d="m165.2 123.41c.17.92-1 3-2.09 4.8a18.25 18.25 0 0 1 -3.91 3.89h-.24c-.16-1.27-.35-2.95-.42-4.12-.13-2.09-.69-1.75-1.16-1.75s-1.25 4.84-1.38 6.38a18.79 18.79 0 0 0 .12 2.54l-9.89 12.17c-.45-.51-.79-.88-1-1.09a50.85 50.85 0 0 0 -7.45-4.11s11.68-10.33 12.07-11.25a17.74 17.74 0 0 0 .24-6.4c-.35-1.54.79-8.85 2.45-9.49v7.54a1 1 0 0 0 1 1h7.25a1 1 0 0 0 1-1v-7.52c.2 0 1.59-.21 1.86.69a2.36 2.36 0 0 1 -.5 2.06c-.19.17 1.52.45 1.58 1.37a6.61 6.61 0 0 1 -1 2.63s1.27.75 1.47 1.66z" fill="#e6bda0"/><path d="m156.12 135.18a18.79 18.79 0 0 1 -.12-2.54c.13-1.54.9-6.38 1.38-6.38s1-.34 1.16 1.75c.07 1.17.26 2.85.42 4.12.13 1 .23 1.8.24 1.8s2.72-.39 3 .21a6.94 6.94 0 0 0 1 1.41s4 .61 4.93 3.86-.82 10.58-.82 10.58 8 23.7 6.9 29.26-5.83 7.46-7.53 7c-.28-.08-14.7-9.67-14.7-9.67.74-.51 1.57-1.13 2.41-1.82 2-1.69 3.58-6.33 4.33-9.06l4.73 3.23-3.29-17.83a16.86 16.86 0 0 1 -3.43-4c-.86-1.81-1.2-6.43-1.2-6.43s.47-.69.68-.56a3.42 3.42 0 0 1 .61.73s-.48-3.2-.7-5.66z" fill="#e6bda0"/><path d="m159.2 163.57s-.18.85-.52 2.09c-.75 2.73-2.29 7.37-4.33 9.06-.84.69-1.67 1.31-2.41 1.82a32 32 0 0 1 -3.25 2l-5.25-2.54s-1.32 12.91-1.37 14.74 2.45 18.62 2.91 22.34.4 11.48.4 11.48l-.85.08c-4.35.38-24.14 2.08-31.14 2a86.66 86.66 0 0 1 -15.39-1.76c-.68-.14-1.07-.24-1.07-.24s-.46-40.56-2.29-50.09c-1.47-7.72-3.59-23-1.17-32.11a9.44 9.44 0 0 1 6.21-6.54 38.52 38.52 0 0 1 6.61-1.69c.54-.05 1.35-.08 2.34-.07 5.06 0 14.85.91 17.41 2.3.46.25 1.18.61 2.06 1 2.47 1.2 6.28 3 9.71 4.67a50.85 50.85 0 0 1 7.45 4.11c.23.21.57.58 1 1.09 3.5 4.07 12.94 16.26 12.94 16.26z" fill="#ffea66"/><path d="m144.53 224.67s2.74 33.34-.87 54.24-17.66 84.16-17.66 84.16h-14.9l8.06-63.59-.6-26.39-23.34 87.06h-11.54l14.32-105.91v-29.36a86.66 86.66 0 0 0 15.44 1.82c6.95.05 26.74-1.65 31.09-2.03z" fill="#384a92"/><path d="m117.04 252.26-25.52 107.89h3.41.29l23.34-87.06z" fill="#2a2b7d"/><path d="m142.17 148.12s-7.32 4.62-7.44 11.06 5.79 12.7 5.79 12.7" fill="none" stroke="#f7d841" stroke-miterlimit="10"/><path d="m148.69 178.55a32 32 0 0 0 3.25-2l.41-.3c-2.71-1.46-12.74-6.92-13.66-8.14l-1.06-1.42a10.52 10.52 0 0 0 3 6.38s-3 17.38-.35 32c1.63 9.19 3.29 15.87 4.31 19.57l.84-.07s.06-7.78-.4-11.48-3-20.51-2.91-22.34 1.32-14.75 1.32-14.75z" fill="#f7d841"/><path d="m118 269.69c0-3.28-1.19-25.12-3.35-27s-6.38-1.89-9.58-7.56" fill="none" stroke="#2a2b7d" stroke-miterlimit="10"/><path d="m130 101c.08.08.23.22.4.41-.19-.19-.34-.33-.4-.41z" fill="none"/><path d="m132.23 104.4a9 9 0 0 0 -1.85-3 9 9 0 0 1 1.85 3z" fill="none"/><path d="m123.78 127.93a8.54 8.54 0 0 0 .85-.88c0-.06.09-.11.13-.16a4.25 4.25 0 0 0 .91-1.91c.2-1.14-.1-2.28.09-4 0-.24.06-.47.09-.68a5.75 5.75 0 0 1 1.13-3.08 6.93 6.93 0 0 1 1.65-1.34 1.84 1.84 0 0 1 .31-.16h.08.2.08a.71.71 0 0 1 .21 0 1 1 0 0 1 .21.11 1.59 1.59 0 0 1 .13.13l.05.05c0 .06.09.12.13.19l.12.26a.14.14 0 0 1 0 .06 1.55 1.55 0 0 1 .08.23v.08l.06.23s0 0 0 .07l.06.29s0 .06 0 .09a1.41 1.41 0 0 1 0 .18.69.69 0 0 1 0 .13v.13s0 .09 0 .13a5.15 5.15 0 0 1 0 .56 5.11 5.11 0 0 0 1.24-2 34.89 34.89 0 0 0 -.12-5.48 13.76 13.76 0 0 0 .81-4.89 5.38 5.38 0 0 0 -.34-1.85 9 9 0 0 0 -1.85-3c-.17-.19-.32-.33-.4-.41l-.07-.06 2.14-.56s4.89-4.67 1.12-7.12-17.78-3.59-21.81-.3-4.8 5.61-4.75 5.83a5.73 5.73 0 0 0 -1.59 4.46c0 3.47 1.24 12.55 2.91 16.79 1.51 3.83 2.49 6.65 2.42 8.54a5.87 5.87 0 0 0 2.86 1.43c3.78.82 8.71-.1 10.86-2.09z" fill="#242829"/><path d="m132.74 131.18a8.38 8.38 0 0 0 .41-1.09 2.88 2.88 0 0 1 -3-2.16l.78-4.28c.37-2 .73-4 1.1-6.06a2.92 2.92 0 0 0 .12-.83 5.75 5.75 0 0 1 0-.83 28.49 28.49 0 0 0 -.44-4.79 34.89 34.89 0 0 1 .12 5.48 5.11 5.11 0 0 1 -1.24 2 5.15 5.15 0 0 0 0-.56 1.48 1.48 0 0 1 -.4.82l-2 9s0 3.27 1.28 5c.86-.31 2.35.19 3.27-1.7z" fill="#242829"/></svg>